<mxfile host="app.diagrams.net" modified="2020-11-16T13:09:09.929Z" agent="5.0 (X11; Linux x86_64) AppleWebKit/537.36 (KHTML, like Gecko) Chrome/83.0.4103.97 Safari/537.36" etag="y1hF5WKeKri-9VqmL-wH" version="13.9.9" type="github">
  <diagram name="Page-1" id="c7558073-3199-34d8-9f00-42111426c3f3">
    <mxGraphModel dx="1421" dy="777" grid="1" gridSize="10" guides="1" tooltips="1" connect="1" arrows="1" fold="1" page="1" pageScale="1" pageWidth="826" pageHeight="1169" background="#ffffff" math="0" shadow="0">
      <root>
        <mxCell id="0" />
        <mxCell id="1" parent="0" />
        <mxCell id="xV2tbsb7gQlv12NHtWF--96" value="nf_conntrack" style="rounded=0;whiteSpace=wrap;html=1;fontSize=16;" vertex="1" parent="1">
          <mxGeometry x="293" y="140" width="157" height="40" as="geometry" />
        </mxCell>
        <mxCell id="xV2tbsb7gQlv12NHtWF--97" value="&lt;font style=&quot;font-size: 16px&quot;&gt;tuplehash[ORIGIN]&lt;/font&gt;" style="rounded=0;whiteSpace=wrap;html=1;" vertex="1" parent="1">
          <mxGeometry x="293" y="180" width="157" height="40" as="geometry" />
        </mxCell>
        <mxCell id="xV2tbsb7gQlv12NHtWF--98" value="&lt;font style=&quot;font-size: 16px&quot;&gt;tuplehash[REPLY]&lt;/font&gt;" style="rounded=0;whiteSpace=wrap;html=1;" vertex="1" parent="1">
          <mxGeometry x="293" y="220" width="157" height="40" as="geometry" />
        </mxCell>
        <mxCell id="xV2tbsb7gQlv12NHtWF--99" value="&lt;font style=&quot;font-size: 16px&quot;&gt;mark&lt;/font&gt;" style="rounded=0;whiteSpace=wrap;html=1;" vertex="1" parent="1">
          <mxGeometry x="293" y="260" width="157" height="40" as="geometry" />
        </mxCell>
        <mxCell id="xV2tbsb7gQlv12NHtWF--100" value="&lt;font style=&quot;font-size: 16px&quot;&gt;status&lt;/font&gt;" style="rounded=0;whiteSpace=wrap;html=1;" vertex="1" parent="1">
          <mxGeometry x="293" y="300" width="157" height="40" as="geometry" />
        </mxCell>
        <mxCell id="xV2tbsb7gQlv12NHtWF--101" value="&lt;font style=&quot;font-size: 16px&quot;&gt;nf_conn *master&lt;/font&gt;" style="rounded=0;whiteSpace=wrap;html=1;" vertex="1" parent="1">
          <mxGeometry x="293" y="340" width="157" height="40" as="geometry" />
        </mxCell>
        <mxCell id="xV2tbsb7gQlv12NHtWF--102" value="&lt;font style=&quot;font-size: 16px&quot;&gt;nf_ct_ext *ext&lt;/font&gt;" style="rounded=0;whiteSpace=wrap;html=1;" vertex="1" parent="1">
          <mxGeometry x="293" y="380" width="157" height="40" as="geometry" />
        </mxCell>
      </root>
    </mxGraphModel>
  </diagram>
</mxfile>
